<svg xmlns:dc="http://purl.org/dc/elements/1.1/" xmlns:cc="http://creativecommons.org/ns#" xmlns:rdf="http://www.w3.org/1999/02/22-rdf-syntax-ns#" xmlns:svg="http://www.w3.org/2000/svg" xmlns="http://www.w3.org/2000/svg" xmlns:sodipodi="http://sodipodi.sourceforge.net/DTD/sodipodi-0.dtd" xmlns:inkscape="http://www.inkscape.org/namespaces/inkscape" version="1.1" x="0px" y="0px" viewBox="0 0 100 125"><g transform="translate(0,-952.36218)"><path style="text-indent:0;text-transform:none;direction:ltr;block-progression:tb;baseline-shift:baseline;color:#000000;enable-background:accumulate;" d="m 16,970.36215 c -4.9341,0 -8.9999999,4.0659 -8.9999999,9 l 0,46.00005 c 0,4.9341 4.0658999,9 8.9999999,9 l 68,0 c 4.9341,0 9,-4.0659 9,-9 l 0,-46.00005 c 0,-4.9341 -4.0659,-9 -9,-9 l -68,0 z m 0,6 68,0 c 1.7139,0 3,1.2861 3,3 l 0,46.00005 c 0,1.7139 -1.2861,3 -3,3 l -68,0 c -1.7139,0 -3,-1.2861 -3,-3 l 0,-46.00005 c 0,-1.7139 1.2861,-3 3,-3 z m 63.7188,5.875 a 3.0003,3.0003 0 0 0 -2,0.9375 l -25.75,24.34375 c -1.2331,1.1662 -2.7403,1.1647 -3.9688,0 L 22.2812,983.17465 a 3.0003,3.0003 0 0 0 -2.4687,-0.8437 3.0003,3.0003 0 0 0 -1.6563,5.1874 l 15.0938,14.34385 -15.1562,15.3749 a 3.0053199,3.0053199 0 0 0 4.2812,4.2189 l 15.25,-15.4688 6.2188,5.9062 c 3.4,3.2233 8.8492,3.2164 12.25,0 l 6.25,-5.9374 15.2812,15.5 a 3.0053199,3.0053199 0 0 0 4.2812,-4.2189 l -15.1874,-15.4061 15.125,-14.31265 a 3.0003,3.0003 0 0 0 -2.125,-5.2812 z" fill="#000000" fill-opacity="1" stroke="none" marker="none" visibility="visible" display="inline" overflow="visible"/></g>
</svg>