<?xml version="1.0" encoding="UTF-8" standalone="no"?><svg xmlns="http://www.w3.org/2000/svg" xmlns:xlink="http://www.w3.org/1999/xlink" xmlns:serif="http://www.serif.com/" viewBox="0 0 48 60" version="1.1" xml:space="preserve" style="" x="0px" y="0px" fill-rule="evenodd" clip-rule="evenodd" stroke-linejoin="round" stroke-miterlimit="2"><g transform="matrix(1,0,0,1,-432,-48)"><g><path d="M444.121,50.707C443.559,50.145 442.796,49.828 442,49.828C441.204,49.828 440.441,50.145 439.879,50.707C438.836,51.75 437.382,53.204 436.106,54.48C433.925,56.661 433.012,59.807 433.688,62.816C433.689,62.82 433.69,62.825 433.691,62.829C434.809,67.523 437.703,75.117 445.293,82.707C452.883,90.297 460.479,93.191 465.175,94.302C465.178,94.303 465.182,94.303 465.186,94.304C468.192,94.979 471.336,94.068 473.515,91.889C474.794,90.62 476.249,89.165 477.293,88.121C477.856,87.559 478.172,86.796 478.172,86C478.172,85.204 477.855,84.441 477.293,83.879C475.39,81.976 472.024,78.61 470.121,76.707C468.95,75.536 467.05,75.536 465.879,76.707L461.393,81.192C461.077,81.509 460.589,81.576 460.2,81.359C458.583,80.319 455.716,78.302 452.707,75.293C449.701,72.287 447.684,69.422 446.658,67.817C446.429,67.424 446.493,66.93 446.812,66.611C446.813,66.61 446.814,66.609 446.815,66.608C448.021,65.393 449.97,63.444 451.293,62.121C451.293,62.121 451.293,62.121 451.293,62.121C452.464,60.95 452.464,59.05 451.293,57.879L444.121,50.707ZM442.707,52.121L449.879,59.293C450.269,59.683 450.269,60.317 449.879,60.707C448.554,62.032 446.603,63.983 445.395,65.199C444.428,66.166 444.241,67.671 444.944,68.849C444.95,68.857 444.955,68.865 444.96,68.874C446.028,70.548 448.139,73.553 451.293,76.707C454.446,79.86 457.45,81.97 459.12,83.044C459.129,83.05 459.139,83.055 459.148,83.061C460.328,83.766 461.836,83.578 462.808,82.606C462.808,82.606 467.293,78.121 467.293,78.121C467.683,77.731 468.317,77.731 468.707,78.121L475.879,85.293C476.066,85.48 476.172,85.735 476.172,86C476.172,86.265 476.066,86.52 475.879,86.707C475.879,86.707 475.879,86.707 475.879,86.707C474.836,87.749 473.384,89.202 472.104,90.472C472.103,90.473 472.102,90.474 472.101,90.475C470.407,92.168 467.965,92.877 465.629,92.354C461.155,91.295 453.934,88.52 446.707,81.293C439.48,74.066 436.705,66.845 435.638,62.372C435.115,60.033 435.825,57.589 437.52,55.894L441.293,52.121C441.48,51.934 441.735,51.828 442,51.828C442.265,51.828 442.52,51.934 442.707,52.121Z"/></g></g>
</svg>